# xmcd CD database file
#
# Track frame offsets:
#	150
#	11502
#	21910
#	35867
#	45522
#	59177
#	69070
#	82952
#	91800
#	104397
#	114672
#	129972
#	145080
#
# Disc length: 2133 seconds
#
# Revision: 2
# Processed by: cddbd v1.5.2PL0 Copyright (c) Steve Scherf et al.
# Submitted via: CDex 1.51
#
DISCID=a708530d
DTITLE=Yankee Jack - Divorce In The Key Of West
DYEAR=1999
DGENRE=Folk/Rock
TTITLE0=I Can't Get Over You As Long As You're Still Under Him
TTITLE1=She's Never Hugged A Parakeet But She Kissed A Cockatoo
TTITLE2=That Bitch
TTITLE3=Tight Butts Drive Her Nutts
TTITLE4=Hot Flash
TTITLE5=I Need A Once A Week Wife In My Life
TTITLE6=One Man's Trash Is Another Man's Treasure
TTITLE7=Those Son-of-a-Bitchin' Pocket-Pickin' Damn Utilities
TTITLE8=She Was Made To Be Loved
TTITLE9=Jesus Saves But He Gets No Interest
TTITLE10=You've Got Nothing At All But Shit Between Your Ears
TTITLE11=Bona Vita
TTITLE12=A Cheap Imitation Of You
EXTD=YEAR: 1999
EXTT0=
EXTT1=
EXTT2=
EXTT3=
EXTT4=
EXTT5=
EXTT6=
EXTT7=
EXTT8=
EXTT9=
EXTT10=
EXTT11=
EXTT12=
PLAYORDER=
